<svg xmlns="http://www.w3.org/2000/svg" xmlns:xlink="http://www.w3.org/1999/xlink" width="500" zoomAndPan="magnify" viewBox="0 0 375 374.999991" height="500" preserveAspectRatio="xMidYMid meet" version="1.0"><defs><g/><clipPath id="ee4f98344c"><path d="M 138 112 L 230 112 L 230 261 L 138 261 Z M 138 112 " clip-rule="nonzero"/></clipPath><clipPath id="72acf61f73"><path d="M 201.183594 112.902344 L 229.921875 126.28125 L 167.492188 260.414062 L 138.75 247.039062 Z M 201.183594 112.902344 " clip-rule="nonzero"/></clipPath></defs><rect x="-37.5" width="450" fill="#ffffff" y="-37.499999" height="449.999989" fill-opacity="1"/><rect x="-37.5" width="450" fill="#e6e6e6" y="-37.499999" height="449.999989" fill-opacity="1"/><g fill="#000000" fill-opacity="1"><g transform="translate(134.193953, 202.014136)"><g><path d="M -4.015625 16.5625 L -3.859375 15.765625 C -3.859375 15.765625 -3.695312 15.773438 -3.375 15.796875 C -3.050781 15.828125 -2.785156 15.84375 -2.578125 15.84375 C 0.046875 15.84375 2.253906 14.914062 4.046875 13.0625 C 5.847656 11.21875 7.21875 8.695312 8.15625 5.5 C 9.09375 2.3125 9.5625 -1.316406 9.5625 -5.390625 L 9.5625 -58.046875 C 9.5625 -63.359375 9.425781 -67.582031 9.15625 -70.71875 C 8.894531 -73.851562 8.238281 -76.117188 7.1875 -77.515625 C 6.144531 -78.910156 4.472656 -79.609375 2.171875 -79.609375 L 2.171875 -80.40625 L 23.875 -80.40625 L 23.875 -79.609375 C 21.570312 -79.609375 19.894531 -78.910156 18.84375 -77.515625 C 17.800781 -76.117188 17.144531 -73.851562 16.875 -70.71875 C 16.613281 -67.582031 16.484375 -63.359375 16.484375 -58.046875 L 16.484375 -5.546875 C 16.484375 -2.648438 16.050781 0.132812 15.1875 2.8125 C 14.332031 5.488281 13.113281 7.882812 11.53125 10 C 9.957031 12.125 8.082031 13.800781 5.90625 15.03125 C 3.738281 16.269531 1.367188 16.890625 -1.203125 16.890625 C -1.847656 16.890625 -2.359375 16.847656 -2.734375 16.765625 C -3.109375 16.679688 -3.535156 16.613281 -4.015625 16.5625 Z M -4.015625 16.5625 "/></g></g></g><g fill="#000000" fill-opacity="1"><g transform="translate(184.842221, 265.757773)"><g><path d="M 24.125 0 L 2.40625 0 L 2.40625 -0.796875 C 4.71875 -0.796875 6.394531 -1.492188 7.4375 -2.890625 C 8.476562 -4.285156 9.132812 -6.5625 9.40625 -9.71875 C 9.675781 -12.882812 9.8125 -17.09375 9.8125 -22.34375 L 9.8125 -58.046875 C 9.8125 -63.347656 9.675781 -67.566406 9.40625 -70.703125 C 9.132812 -73.835938 8.476562 -76.101562 7.4375 -77.5 C 6.394531 -78.894531 4.71875 -79.59375 2.40625 -79.59375 L 2.40625 -80.390625 L 24.125 -80.390625 L 24.125 -79.59375 C 21.8125 -79.59375 20.132812 -78.894531 19.09375 -77.5 C 18.050781 -76.101562 17.394531 -73.835938 17.125 -70.703125 C 16.851562 -67.566406 16.71875 -63.347656 16.71875 -58.046875 L 16.71875 -43.96875 C 17.195312 -45.039062 18.265625 -46.097656 19.921875 -47.140625 C 21.585938 -48.191406 23.628906 -48.71875 26.046875 -48.71875 C 28.722656 -48.71875 31.265625 -48.300781 33.671875 -47.46875 C 36.085938 -46.632812 38.445312 -45.800781 40.75 -44.96875 C 43.0625 -44.144531 45.394531 -43.734375 47.75 -43.734375 C 49.300781 -43.734375 50.679688 -44.144531 51.890625 -44.96875 C 53.097656 -45.800781 53.703125 -46.914062 53.703125 -48.3125 L 54.5 -48.3125 C 54.5 -45.957031 53.570312 -43.894531 51.71875 -42.125 C 49.875 -40.351562 47.375 -39.46875 44.21875 -39.46875 C 41.75 -39.46875 39.492188 -39.828125 37.453125 -40.546875 C 35.421875 -41.273438 33.519531 -42.09375 31.75 -43 C 29.976562 -43.914062 28.328125 -44.734375 26.796875 -45.453125 C 25.273438 -46.179688 23.789062 -46.546875 22.34375 -46.546875 C 20.257812 -46.546875 18.800781 -45.832031 17.96875 -44.40625 C 17.132812 -42.988281 16.71875 -41.34375 16.71875 -39.46875 L 16.71875 -22.34375 C 16.71875 -17.09375 16.851562 -12.882812 17.125 -9.71875 C 17.394531 -6.5625 18.050781 -4.285156 19.09375 -2.890625 C 20.132812 -1.492188 21.8125 -0.796875 24.125 -0.796875 Z M 49.515625 -79.59375 L 49.515625 -80.390625 L 71.21875 -80.390625 L 71.21875 -79.59375 C 68.914062 -79.59375 67.242188 -78.894531 66.203125 -77.5 C 65.160156 -76.101562 64.503906 -73.835938 64.234375 -70.703125 C 63.960938 -67.566406 63.828125 -63.347656 63.828125 -58.046875 L 63.828125 -22.34375 C 63.828125 -17.09375 63.960938 -12.882812 64.234375 -9.71875 C 64.503906 -6.5625 65.160156 -4.285156 66.203125 -2.890625 C 67.242188 -1.492188 68.914062 -0.796875 71.21875 -0.796875 L 71.21875 0 L 49.515625 0 L 49.515625 -0.796875 C 51.828125 -0.796875 53.503906 -1.492188 54.546875 -2.890625 C 55.585938 -4.285156 56.242188 -6.5625 56.515625 -9.71875 C 56.785156 -12.882812 56.921875 -17.09375 56.921875 -22.34375 L 56.921875 -58.046875 C 56.921875 -63.347656 56.785156 -67.566406 56.515625 -70.703125 C 56.242188 -73.835938 55.585938 -76.101562 54.546875 -77.5 C 53.503906 -78.894531 51.828125 -79.59375 49.515625 -79.59375 Z M 49.515625 -79.59375 "/></g></g></g><g clip-path="url(#ee4f98344c)"><g clip-path="url(#72acf61f73)"><path fill="#e6e6e6" d="M 201.183594 112.902344 L 229.921875 126.28125 L 167.476562 260.441406 L 138.738281 247.0625 Z M 201.183594 112.902344 " fill-opacity="1" fill-rule="nonzero"/></g></g><path stroke-linecap="butt" transform="matrix(0.315306, -0.680501, 0.680501, 0.315306, 151.546533, 256.528284)" fill="none" stroke-linejoin="miter" d="M -0.00192743 0.500798 L 205.821354 0.5025 " stroke="#000000" stroke-width="1" stroke-opacity="1" stroke-miterlimit="4"/></svg>